<?xml version="1.0" encoding="UTF-8"?>
<svg id="Layer_2" data-name="Layer 2" xmlns="http://www.w3.org/2000/svg" viewBox="0 0 254.78 256.58">
  <defs>
    <style>
      .cls-1 {
        fill: #316470;
      }

      .cls-1, .cls-2 {
        stroke-width: 0px;
      }

      .cls-2 {
        fill: #e8eeef;
      }
    </style>
  </defs>
  <g id="Layer_2-2" data-name="Layer 2">
    <circle class="cls-2" cx="127.41" cy="128.06" r="101.3"/>
    <g id="Layer_1-2" data-name="Layer 1-2">
      <path class="cls-1" d="m254.67,127.92c0,4.91.32,9.85-.09,14.73-.39,4.64-1.36,9.26-2.4,13.81-1.16,5.03-2.33,10.11-4.16,14.92-2.27,5.96-4.96,11.8-7.93,17.45-8.83,16.84-21.1,30.83-36.19,42.31-8.2,6.24-17.14,11.36-26.6,15.36-5.92,2.5-12.26,4.03-18.45,5.87-6.98,2.08-14.13,3.19-21.41,3.51-4.7.21-9.4.87-14.08.66-5.26-.23-10.51-1.1-15.73-1.89-4.38-.66-8.77-1.4-13.06-2.48-3.87-.98-7.63-2.45-11.41-3.77-9.03-3.17-17.33-7.81-25.44-12.8-3.07-1.89-5.92-4.17-8.75-6.41-8.27-6.55-15.71-13.93-22.12-22.34-6.19-8.13-11.59-16.77-15.67-26.13-2.35-5.37-4.09-11.02-5.88-16.62-2.62-8.19-4.15-16.61-4.57-25.21-.3-6.13-1-12.29-.61-18.38.42-6.49,1.87-12.91,2.99-19.34.63-3.63,1.32-7.27,2.34-10.81.95-3.3,2.28-6.49,3.57-9.68,3.94-9.78,8.7-19.17,15.11-27.55,4.78-6.26,9.68-12.55,15.33-18,10.01-9.66,21.44-17.54,34.06-23.45,7.65-3.58,15.65-6.26,23.89-8.29C105.77,1.33,114.22.14,122.8.05c6.94-.07,13.94-.2,20.81.59,6.32.73,12.5,2.63,18.73,4.04,7.3,1.65,14.14,4.58,20.86,7.79,8.03,3.83,15.75,8.29,22.47,14.13,6.93,6.03,13.97,12.12,19.87,19.1,5.63,6.65,10.17,14.3,14.6,21.86,3.17,5.41,5.77,11.24,7.86,17.16,2.06,5.86,3.09,12.08,4.69,18.11,2.2,8.25,2.22,16.67,1.99,25.1h-.01Zm-155.47,15.04h.18v64.99c0,.5-.17,1.11.06,1.48.52.85,1.11,2.14,1.87,2.29,6.66,1.32,13.33,2.7,20.06,3.49,4.39.52,8.93.42,13.34,0,5.37-.5,10.79-1.19,15.99-2.56,7.14-1.89,13.94-4.79,20.36-8.58,9.66-5.7,18.14-12.72,24.96-21.65,5.59-7.32,10.07-15.18,13.27-23.95,2.77-7.6,4.81-15.27,5.1-23.24.25-6.92-.57-13.87-.85-20.81-.27-6.71-2.37-13.03-4.99-19-2.92-6.63-6.69-12.94-10.62-19.04-4.69-7.26-10.98-13.11-17.88-18.31-7.64-5.76-15.81-10.47-25.09-13.01-5.53-1.51-11.06-3.62-16.7-4.07-13.49-1.08-26.94-.51-39.85,4.39-8.55,3.24-16.57,7.49-23.78,13.09-11.14,8.65-19.93,19.34-25.72,32.24-2.33,5.2-3.66,10.84-5.62,16.21-2.31,6.33-2.66,12.98-2.86,19.54-.24,7.83.46,15.68,2.99,23.23,1.43,4.26,2.61,8.61,4.17,12.82,2.01,5.44,1.9,4.76,6.94,1.96.57-.32,1.12-1.63.92-2.23-1.34-3.94-3.17-7.73-4.28-11.72-1.28-4.63-2.28-9.38-2.83-14.15-.47-4.11-.44-8.34-.1-12.48.46-5.73.77-11.6,2.3-17.08,1.91-6.82,4.72-13.4,8.43-19.57,6.13-10.18,13.93-18.71,23.73-25.41,7.24-4.95,15-8.72,23.51-11.02,6.55-1.77,13.14-3.13,19.94-2.93,4.28.12,8.6.34,12.82,1.01,4.73.75,9.45,1.81,14.04,3.17,10.21,3.01,19.09,8.54,27.09,15.46,7.09,6.13,13.06,13.33,17.46,21.55,2.98,5.57,5.67,11.38,7.05,17.74,1.51,6.96,3.03,13.85,3.14,21.01.09,5.86-1.2,11.49-2.15,17.2-1.21,7.3-4.01,13.98-7.35,20.47-4.55,8.86-10.52,16.68-18.17,23.06-3.82,3.19-7.89,6.16-12.13,8.75-5.73,3.5-11.76,6.49-18.41,7.88-5.15,1.08-10.28,2.54-15.49,2.94-8.17.63-16.31.15-24.39-1.89-2.84-.72-3.5-1.54-3.5-4.26.08-41.08.05-82.16.05-123.24,0-.83.05-1.68-.05-2.5-.06-.43-.4-1.17-.64-1.18-1.81-.09-3.72-.35-5.4.14-.59.17-.87,2.29-.87,3.51-.05,21.42-.04,42.83-.04,64.25h-.01Z"/>
    </g>
  </g>
</svg>